<svg width="24" height="24" viewBox="0 0 24 24" fill="none" xmlns="http://www.w3.org/2000/svg">
<g clip-path="url(#clip0_26_8346)">
<path d="M0 12C0 15.1826 1.26428 18.2348 3.51472 20.4853C5.76516 22.7357 8.8174 24 12 24C15.1826 24 18.2348 22.7357 20.4853 20.4853C22.7357 18.2348 24 15.1826 24 12C24 8.8174 22.7357 5.76516 20.4853 3.51472C18.2348 1.26428 15.1826 0 12 0C8.8174 0 5.76516 1.26428 3.51472 3.51472C1.26428 5.76516 0 8.8174 0 12ZM17.25 15C17.25 15.6234 16.7484 16.125 16.125 16.125C15.5016 16.125 15 15.6234 15 15V10.5891L8.67188 16.9219C8.23125 17.3625 7.51875 17.3625 7.08281 16.9219C6.64688 16.4813 6.64219 15.7688 7.08281 15.3328L13.4109 9.00469L8.625 9C8.00156 9 7.5 8.49844 7.5 7.875C7.5 7.25156 8.00156 6.75 8.625 6.75H16.125C16.7484 6.75 17.25 7.25156 17.25 7.875V15Z" fill="#202A37"/>
</g>
<defs>
<clipPath id="clip0_26_8346">
<rect width="24" height="24" fill="white"/>
</clipPath>
</defs>
</svg>
