<svg width="24" height="24" viewBox="0 0 24 24" fill="none" xmlns="http://www.w3.org/2000/svg">
<rect x="0.5" y="0.5" width="23" height="23" rx="11.5" stroke="#D9D9D9"/>
<path d="M15.7136 7.33866C15.0179 6.61459 13.8893 6.61459 13.1936 7.33866L8.60286 12.116C7.48388 13.2805 7.48388 15.1666 8.60286 16.331C9.72184 17.4955 11.5342 17.4955 12.6532 16.331L16.2875 12.549C16.4357 12.3947 16.6796 12.3947 16.8278 12.549C16.9761 12.7032 16.9761 12.957 16.8278 13.1113L13.1936 16.8934C11.7757 18.3689 9.47796 18.3689 8.06249 16.8934C6.64703 15.4179 6.64464 13.0292 8.06249 11.5537L12.6532 6.77632C13.6478 5.74123 15.2594 5.74123 16.254 6.77632C17.2487 7.81141 17.2487 9.48847 16.254 10.5236L11.8594 15.0969C11.1851 15.7986 10.0757 15.7339 9.47796 14.96C8.96868 14.2982 9.01889 13.3427 9.59512 12.743L13.227 8.96594C13.3753 8.81167 13.6191 8.81167 13.7674 8.96594C13.9156 9.12021 13.9156 9.37401 13.7674 9.52828L10.1379 13.3054C9.83661 13.6189 9.81031 14.1165 10.0757 14.4624C10.3865 14.8655 10.9652 14.9003 11.3166 14.5346L15.7136 9.96123C16.4094 9.23716 16.4094 8.06272 15.7136 7.33866Z" fill="black"/>
</svg>
