<svg width="12" height="12" viewBox="0 0 12 12" fill="none" xmlns="http://www.w3.org/2000/svg">
<g clip-path="url(#clip0_26_9336)">
<path d="M4.68638 1.20937L4.21987 1.875H7.78013L7.31362 1.20937C7.27679 1.15781 7.2154 1.125 7.14911 1.125H4.84844C4.78214 1.125 4.72076 1.15547 4.68393 1.20937H4.68638ZM8.29576 0.585938L9.19688 1.875H9.53571H10.7143H10.9107C11.2373 1.875 11.5 2.12578 11.5 2.4375C11.5 2.74922 11.2373 3 10.9107 3H10.7143V10.125C10.7143 11.1609 9.83527 12 8.75 12H3.25C2.16473 12 1.28571 11.1609 1.28571 10.125V3H1.08929C0.762723 3 0.5 2.74922 0.5 2.4375C0.5 2.12578 0.762723 1.875 1.08929 1.875H1.28571H2.46429H2.80313L3.70424 0.583594C3.9596 0.220312 4.38929 0 4.84844 0H7.14911C7.60826 0 8.03795 0.220312 8.2933 0.583594L8.29576 0.585938ZM2.46429 3V10.125C2.46429 10.5398 2.8154 10.875 3.25 10.875H8.75C9.1846 10.875 9.53571 10.5398 9.53571 10.125V3H2.46429ZM4.42857 4.5V9.375C4.42857 9.58125 4.25179 9.75 4.03571 9.75C3.81964 9.75 3.64286 9.58125 3.64286 9.375V4.5C3.64286 4.29375 3.81964 4.125 4.03571 4.125C4.25179 4.125 4.42857 4.29375 4.42857 4.5ZM6.39286 4.5V9.375C6.39286 9.58125 6.21607 9.75 6 9.75C5.78393 9.75 5.60714 9.58125 5.60714 9.375V4.5C5.60714 4.29375 5.78393 4.125 6 4.125C6.21607 4.125 6.39286 4.29375 6.39286 4.5ZM8.35714 4.5V9.375C8.35714 9.58125 8.18036 9.75 7.96429 9.75C7.74821 9.75 7.57143 9.58125 7.57143 9.375V4.5C7.57143 4.29375 7.74821 4.125 7.96429 4.125C8.18036 4.125 8.35714 4.29375 8.35714 4.5Z" fill="#FF6347"/>
</g>
<defs>
<clipPath id="clip0_26_9336">
<rect width="11" height="12" fill="white" transform="translate(0.5)"/>
</clipPath>
</defs>
</svg>
