<svg width="25" height="25" viewBox="0 0 25 25" fill="none" xmlns="http://www.w3.org/2000/svg">
<g clip-path="url(#clip0_26_11180)">
<path d="M0.730439 13.074C0.307455 13.05 -0.0193966 12.6895 -0.000170016 12.2665L0.0190565 11.882C0.244969 7.37815 3.9605 3.84527 8.46913 3.84527H18.7746L16.0156 1.3362C15.7031 1.05261 15.6791 0.56233 15.9627 0.249898C16.2463 -0.0625332 16.7366 -0.0865664 17.049 0.197025L21.2788 4.04234C21.4374 4.18654 21.5288 4.39322 21.5288 4.60952C21.5288 4.82582 21.4374 5.03251 21.2788 5.1767L17.049 9.02202C16.7366 9.30561 16.2463 9.28638 15.9627 8.96915C15.6791 8.65191 15.6983 8.16644 16.0156 7.88284L18.7746 5.38339H8.46913C4.78244 5.38339 1.73983 8.27699 1.55718 11.9589L1.53796 12.3434C1.51873 12.7664 1.15342 13.0932 0.730439 13.074ZM23.8792 11.5359C24.3022 11.5551 24.6291 11.9204 24.6098 12.3434L24.5906 12.7279C24.3647 17.2318 20.6492 20.7646 16.1405 20.7646H5.83509L8.5941 23.2737C8.90654 23.5573 8.93057 24.0476 8.64698 24.36C8.36338 24.6724 7.87311 24.6965 7.56068 24.4129L3.33083 20.5676C3.17221 20.4234 3.08089 20.2167 3.08089 20.0004C3.08089 19.7841 3.17221 19.5774 3.33083 19.4332L7.56068 15.5879C7.87311 15.3043 8.36338 15.3235 8.64698 15.6408C8.93057 15.958 8.91134 16.4435 8.5941 16.7271L5.83509 19.2265H16.1405C19.8272 19.2265 22.8698 16.3329 23.0525 12.651L23.0717 12.2665C23.0909 11.8435 23.4562 11.5167 23.8792 11.5359Z" fill="black"/>
</g>
<defs>
<clipPath id="clip0_26_11180">
<rect width="24.61" height="24.61" fill="white"/>
</clipPath>
</defs>
</svg>
