<svg width="25" height="25" viewBox="0 0 25 25" fill="none" xmlns="http://www.w3.org/2000/svg">
<path d="M21.7778 0.78125C21.7778 0.351562 21.4278 0 21 0C20.5722 0 20.2222 0.351562 20.2222 0.78125V2.73438H18.2778C17.85 2.73438 17.5 3.08594 17.5 3.51562C17.5 3.94531 17.85 4.29688 18.2778 4.29688H20.2222V6.25C20.2222 6.67969 20.5722 7.03125 21 7.03125C21.4278 7.03125 21.7778 6.67969 21.7778 6.25V4.29688H23.7222C24.15 4.29688 24.5 3.94531 24.5 3.51562C24.5 3.08594 24.15 2.73438 23.7222 2.73438H21.7778V0.78125ZM12.4444 5.85938C12.0799 5.85938 11.7153 5.9375 11.3847 6.08887L0.816667 10.8447C0.320833 11.0693 0 11.5625 0 12.1094C0 12.6562 0.320833 13.1494 0.816667 13.374L11.3847 18.1348C11.7201 18.2861 12.0799 18.3643 12.4444 18.3643C12.809 18.3643 13.1736 18.2861 13.5042 18.1348L24.0722 13.374C24.5681 13.1494 24.8889 12.6562 24.8889 12.1094C24.8889 11.5625 24.5681 11.0693 24.0722 10.8447L13.5042 6.08887C13.1687 5.9375 12.809 5.85938 12.4444 5.85938ZM12.0167 7.51465C12.1528 7.45605 12.2937 7.42188 12.4444 7.42188C12.5951 7.42188 12.7361 7.45117 12.8722 7.51465L23.0806 12.1094L12.8722 16.7041C12.7361 16.7627 12.5951 16.7969 12.4444 16.7969C12.2937 16.7969 12.1528 16.7676 12.0167 16.7041L1.81319 12.1094L12.0215 7.51465H12.0167ZM3.04792 16.0889L0.816667 17.0947C0.320833 17.3193 0 17.8125 0 18.3594C0 18.9062 0.320833 19.3994 0.816667 19.624L11.3847 24.3848C11.7201 24.5361 12.0799 24.6143 12.4444 24.6143C12.809 24.6143 13.1736 24.5361 13.5042 24.3848L24.0722 19.624C24.5681 19.3994 24.8889 18.9062 24.8889 18.3594C24.8889 17.8125 24.5681 17.3193 24.0722 17.0947L21.841 16.0889L19.9403 16.9434L23.0757 18.3594L12.8674 22.9541C12.7312 23.0127 12.5903 23.0469 12.4396 23.0469C12.2889 23.0469 12.1479 23.0176 12.0118 22.9541L1.81319 18.3594L4.94861 16.9482L3.04792 16.0889Z" fill="black"/>
</svg>
